<?xml version="1.0" encoding="UTF-8" standalone="no"?>
<!DOCTYPE svg PUBLIC "-//W3C//DTD SVG 1.1//EN" "http://www.w3.org/Graphics/SVG/1.1/DTD/svg11.dtd">
<svg version="1.1" xmlns="http://www.w3.org/2000/svg" xmlns:xlink="http://www.w3.org/1999/xlink" preserveAspectRatio="xMidYMid meet" viewBox="0 0 640 640" width="640" height="640"><defs><path d="M506.36 278.52C506.36 369.15 432.79 442.73 342.16 442.73C251.53 442.73 177.95 369.15 177.95 278.52C177.95 187.9 251.53 114.32 342.16 114.32C432.79 114.32 506.36 187.9 506.36 278.52Z" id="az6UMxPCL"></path><path d="M542.27 251.93C542.27 342.56 468.7 416.14 378.07 416.14C287.44 416.14 213.86 342.56 213.86 251.93C213.86 161.3 287.44 87.73 378.07 87.73C468.7 87.73 542.27 161.3 542.27 251.93Z" id="ni9p4t7K"></path><path d="M502.05 221.93C502.05 312.56 428.47 386.14 337.84 386.14C247.21 386.14 173.64 312.56 173.64 221.93C173.64 131.3 247.21 57.73 337.84 57.73C428.47 57.73 502.05 131.3 502.05 221.93Z" id="b5G1ceDCN"></path><path d="M561.23 247.61C561.23 338.24 487.65 411.82 397.02 411.82C306.4 411.82 232.82 338.24 232.82 247.61C232.82 156.99 306.4 83.41 397.02 83.41C487.65 83.41 561.23 156.99 561.23 247.61Z" id="d4BPN5nIjY"></path></defs><g><g><g><g><use xlink:href="#az6UMxPCL" opacity="0.68" fill-opacity="0" stroke="#fff0b3" stroke-width="56" stroke-opacity="1"></use></g></g><g><g><use xlink:href="#ni9p4t7K" opacity="0.49" fill-opacity="0" stroke="#ffe066" stroke-width="76" stroke-opacity="1"></use></g></g><g><g><use xlink:href="#b5G1ceDCN" opacity="0.25" fill-opacity="0" stroke="#fc8b4f" stroke-width="70" stroke-opacity="1"></use></g></g><g><g><use xlink:href="#d4BPN5nIjY" opacity="0.25" fill-opacity="0" stroke="#fc8b4f" stroke-width="70" stroke-opacity="1"></use></g></g></g></g></svg>